# xmcd
#
# Track frame offsets:
#	150
#	15891
#	29206
#	43260
#	60815
#	76971
#	89454
#	106915
#	120936
#	135601
#	149402
#
# Disc length: 2242 seconds
#
# Revision: 1
# Processed by: cddbd v1.5.2PL0 Copyright (c) Steve Scherf et al.
# Submitted via: audiograbber 1.83.01
#
DISCID=8708c00b
DTITLE=Neal McCoy - A Tribute to Charley Pride
DYEAR=2016
DGENRE=Country
TTITLE0=Is Anybody Goin' To San Antone
TTITLE1=I'm Just Me
TTITLE2=Kiss An Angel Good Mornin'
TTITLE3=Kaw-Liga
TTITLE4=You're So Good When You're Bad
TTITLE5=It's Gonna Take A Little Bit Longer
TTITLE6=Roll On Mississippi
TTITLE7=Just Between You And Me
TTITLE8=Mountain Of Love
TTITLE9=Someone Loves You Honey
TTITLE10=You're My Jamaica
EXTD=
EXTT0=
EXTT1=
EXTT2=
EXTT3=
EXTT4=
EXTT5=
EXTT6=
EXTT7=
EXTT8=
EXTT9=
EXTT10=
PLAYORDER=
